<?xml version="1.0" standalone="no"?>
<!DOCTYPE svg PUBLIC "-//W3C//DTD SVG 20010904//EN"
 "http://www.w3.org/TR/2001/REC-SVG-20010904/DTD/svg10.dtd">
<svg version="1.0" xmlns="http://www.w3.org/2000/svg"
 width="417.000000pt" height="139.000000pt" viewBox="0 0 417.000000 139.000000"
 preserveAspectRatio="xMidYMid meet">

<g transform="translate(0.000000,139.000000) scale(0.100000,-0.100000)"
fill="#000000" stroke="none">
<path d="M607 1039 c-166 -39 -297 -199 -305 -371 -4 -81 21 -191 52 -233 14
-18 15 -10 16 98 l0 117 25 0 25 0 0 -149 0 -150 38 -30 37 -31 3 300 c2 292
3 300 22 300 20 0 20 -7 20 -310 l0 -310 26 -10 c57 -22 54 -39 54 335 l0 345
25 0 25 0 0 -350 0 -350 40 0 40 0 0 375 0 375 25 0 25 0 0 -370 c0 -350 1
-370 18 -370 10 0 26 6 35 13 15 11 17 41 19 252 l3 240 23 3 22 3 0 -230 c0
-127 3 -231 8 -231 4 0 22 14 40 30 l32 30 0 175 0 175 25 0 25 0 1 -142 1
-143 26 55 c35 73 42 203 17 281 -67 209 -277 328 -488 278z"/>
<path d="M3527 880 c-46 -14 -94 -57 -117 -106 -18 -37 -23 -64 -23 -128 0
-166 76 -247 233 -248 160 -1 238 90 228 266 -9 160 -75 226 -228 225 -36 -1
-78 -5 -93 -9z m154 -118 c24 -21 32 -38 36 -74 13 -115 -22 -188 -92 -188
-73 0 -105 42 -105 138 0 76 15 119 49 137 41 22 77 18 112 -13z"/>
<path d="M1220 640 l0 -240 60 0 60 0 0 90 0 90 75 0 75 0 0 50 0 49 -72 3
-73 3 -3 48 -3 47 80 0 81 0 0 50 0 50 -140 0 -140 0 0 -240z"/>
<path d="M1590 640 l0 -240 60 0 60 0 0 240 0 240 -60 0 -60 0 0 -240z"/>
<path d="M1830 640 l0 -240 155 0 155 0 0 50 0 50 -95 0 -95 0 0 190 0 190
-60 0 -60 0 0 -240z"/>
<path d="M2230 640 l0 -240 60 0 59 0 3 81 c3 69 6 84 23 95 20 13 24 9 70
-81 l50 -95 68 0 c37 0 67 3 67 6 0 3 -31 62 -70 131 -38 69 -70 128 -70 132
0 3 27 44 61 91 92 129 91 120 12 120 l-68 -1 -65 -99 c-36 -54 -68 -99 -72
-100 -5 0 -8 45 -8 100 l0 100 -60 0 -60 0 0 -240z"/>
<path d="M2700 640 l0 -240 60 0 60 0 0 240 0 240 -60 0 -60 0 0 -240z"/>
<path d="M2940 640 l0 -240 60 0 60 0 0 91 c0 87 1 90 22 87 16 -2 36 -28 72
-90 l51 -88 73 0 72 0 -70 106 -71 105 26 20 c80 64 71 190 -18 232 -27 13
-64 17 -156 17 l-121 0 0 -240z m204 134 c20 -20 21 -68 1 -84 -8 -6 -29 -13
-47 -13 l-33 -2 -3 58 -3 57 35 0 c19 0 42 -7 50 -16z"/>
</g>
</svg>
