<?xml version="1.0"?>
<svg width="417" height="139" xmlns="http://www.w3.org/2000/svg" xmlns:svg="http://www.w3.org/2000/svg" preserveAspectRatio="xMidYMid meet" version="1.0">
 <g class="layer">
  <title>Layer 1</title>
  <g fill="#000000" id="svg_1" transform="matrix(0.1 0 0 -0.1 0 0)">
   <path d="m607,-351c-166,-39 -297,-199 -305,-371c-4,-81 21,-191 52,-233c14,-18 15,-10 16,98l0,117l25,0l25,0l0,-149l0,-150l38,-30l37,-31l3,300c2,292 3,300 22,300c20,0 20,-7 20,-310l0,-310l26,-10c57,-22 54,-39 54,335l0,345l25,0l25,0l0,-350l0,-350l40,0l40,0l0,375l0,375l25,0l25,0l0,-370c0,-350 1,-370 18,-370c10,0 26,6 35,13c15,11 17,41 19,252l3,240l23,3l22,3l0,-230c0,-127 3,-231 8,-231c4,0 22,14 40,30l32,30l0,175l0,175l25,0l25,0l1,-142l1,-143l26,55c35,73 42,203 17,281c-67,209 -277,328 -488,278z" fill="#ffffff" id="svg_2" stroke-width="0"/>
   <path d="m3527,-510c-46,-14 -94,-57 -117,-106c-18,-37 -23,-64 -23,-128c0,-166 76,-247 233,-248c160,-1 238,90 228,266c-9,160 -75,226 -228,225c-36,-1 -78,-5 -93,-9zm154,-118c24,-21 32,-38 36,-74c13,-115 -22,-188 -92,-188c-73,0 -105,42 -105,138c0,76 15,119 49,137c41,22 77,18 112,-13z" fill="#ffffff" id="svg_3" stroke-width="0"/>
   <path d="m1220,-750l0,-240l60,0l60,0l0,90l0,90l75,0l75,0l0,50l0,49l-72,3l-73,3l-3,48l-3,47l80,0l81,0l0,50l0,50l-140,0l-140,0l0,-240z" fill="#ffffff" id="svg_4" stroke-width="0"/>
   <path d="m1590,-750l0,-240l60,0l60,0l0,240l0,240l-60,0l-60,0l0,-240z" fill="#ffffff" id="svg_5" stroke-width="0"/>
   <path d="m1830,-750l0,-240l155,0l155,0l0,50l0,50l-95,0l-95,0l0,190l0,190l-60,0l-60,0l0,-240z" fill="#ffffff" id="svg_6" stroke-width="0"/>
   <path d="m2230,-750l0,-240l60,0l59,0l3,81c3,69 6,84 23,95c20,13 24,9 70,-81l50,-95l68,0c37,0 67,3 67,6c0,3 -31,62 -70,131c-38,69 -70,128 -70,132c0,3 27,44 61,91c92,129 91,120 12,120l-68,-1l-65,-99c-36,-54 -68,-99 -72,-100c-5,0 -8,45 -8,100l0,100l-60,0l-60,0l0,-240z" fill="#ffffff" id="svg_7" stroke-width="0"/>
   <path d="m2700,-750l0,-240l60,0l60,0l0,240l0,240l-60,0l-60,0l0,-240z" fill="#ffffff" id="svg_8" stroke-width="0"/>
   <path d="m2940,-750l0,-240l60,0l60,0l0,91c0,87 1,90 22,87c16,-2 36,-28 72,-90l51,-88l73,0l72,0l-70,106l-71,105l26,20c80,64 71,190 -18,232c-27,13 -64,17 -156,17l-121,0l0,-240zm204,134c20,-20 21,-68 1,-84c-8,-6 -29,-13 -47,-13l-33,-2l-3,58l-3,57l35,0c19,0 42,-7 50,-16z" fill="#ffffff" id="svg_9" stroke-width="0"/>
  </g>
 </g>
</svg>